<?xml version="1.0" encoding="UTF-8"?> <svg xmlns="http://www.w3.org/2000/svg" width="495" height="177" viewBox="0 0 495 177" fill="none"> <path d="M492.196 28.4033C492.003 29.1456 491.421 29.7754 490.622 29.9752C478.496 33.0835 466.098 35.7586 453.774 37.9322C452.587 38.1444 451.447 37.3499 451.238 36.152C451.028 34.9541 451.82 33.824 453.018 33.6146C465.236 31.4586 477.514 28.8089 489.53 25.7289C490.705 25.4342 491.891 26.1388 492.199 27.3057C492.294 27.6813 492.287 28.0533 492.196 28.4033Z" fill="#ffffff"></path> <path d="M492.101 29.205C492.035 29.4595 491.926 29.7029 491.768 29.922C463.647 69.3463 421.645 100.61 373.491 117.968C332.943 132.583 289.456 136.821 248.791 130.381C236.804 149.67 216.69 164.831 193.043 171.68C166.397 179.402 135.428 177.023 105.828 164.98C48.4943 141.639 6.04716 84.5476 0.20588 22.9117C0.089772 21.7041 0.979311 20.6333 2.18384 20.5276C3.39113 20.4113 4.46137 21.3009 4.56688 22.5058C10.2531 82.5617 51.6088 138.192 107.468 160.934C136.158 172.605 166.11 174.935 191.813 167.488C213.808 161.115 232.576 147.258 244.093 129.601C238.07 128.522 232.11 127.199 226.245 125.64C201.864 119.166 183.516 109.901 170.178 97.2967C153.249 81.3134 144.829 59.1081 148.194 39.3323C152.017 16.8342 172.869 -0.987687 193.701 0.420524C203.312 1.06268 213.391 5.43773 223.656 13.4049C254.327 37.2178 268.265 79.2894 256.799 113.466C255.32 117.893 253.419 122.199 251.159 126.321C290.615 132.277 332.691 128.023 372.002 113.857C419.319 96.8016 460.591 66.0837 488.205 27.3882C488.902 26.4034 490.275 26.1716 491.257 26.8797C492.022 27.4184 492.332 28.3593 492.109 29.2183L492.101 29.205ZM246.554 125.577C249.026 121.249 251.072 116.732 252.636 112.066C253.15 110.524 253.611 108.969 254.019 107.399C262.221 75.8501 248.812 38.49 220.958 16.8587C211.4 9.43753 202.124 5.37285 193.402 4.79212C174.715 3.53408 155.997 19.6803 152.507 40.0687C149.379 58.4115 157.305 79.1187 173.181 94.1037C185.987 106.185 203.708 115.117 227.372 121.393C233.671 123.065 240.077 124.459 246.554 125.577Z" fill="#ffffff"></path> <path d="M493.939 63.0133C493.735 63.798 493.104 64.4379 492.255 64.6134C491.073 64.8496 489.914 64.0841 489.668 62.8992C487.507 52.2726 487.243 41.4485 488.875 30.7324C488.991 29.9814 489.118 29.1427 488.925 28.7529C488.394 27.6636 488.858 26.3577 489.947 25.8257C491.036 25.2937 492.341 25.7576 492.873 26.8469C493.655 28.454 493.394 30.1524 493.207 31.3944C491.652 41.5984 491.902 51.9095 493.959 62.0222C494.03 62.3577 494.011 62.6924 493.928 63.0105L493.939 63.0133Z" fill="#ffffff"></path> </svg> 