<?xml version="1.0" encoding="UTF-8"?> <svg xmlns="http://www.w3.org/2000/svg" width="26" height="26" viewBox="0 0 26 26" fill="none"> <g clip-path="url(#clip0_261_5986)"> <path d="M18.9597 2.07666C17.7398 2.09563 16.5465 2.43617 15.5003 3.06387C14.4542 3.69157 13.5921 4.58422 13.0013 5.65166C12.4105 4.58422 11.5485 3.69157 10.5023 3.06387C9.45617 2.43617 8.26289 2.09563 7.04301 2.07666C5.09836 2.16115 3.26619 3.01185 1.94677 4.44291C0.627353 5.87397 -0.0720581 7.76906 0.00133828 9.71416C0.00133828 14.6401 5.18617 20.0199 9.53467 23.6675C10.5056 24.4834 11.7331 24.9307 13.0013 24.9307C14.2695 24.9307 15.4971 24.4834 16.468 23.6675C20.8165 20.0199 26.0013 14.6401 26.0013 9.71416C26.0747 7.76906 25.3753 5.87397 24.0559 4.44291C22.7365 3.01185 20.9043 2.16115 18.9597 2.07666ZM15.0759 22.01C14.4952 22.499 13.7605 22.7671 13.0013 22.7671C12.2422 22.7671 11.5074 22.499 10.9268 22.01C5.36059 17.3397 2.168 12.8591 2.168 9.71416C2.09395 8.34344 2.5649 6.99903 3.47815 5.97417C4.3914 4.9493 5.67284 4.32712 7.04301 4.24333C8.41317 4.32712 9.69462 4.9493 10.6079 5.97417C11.5211 6.99903 11.9921 8.34344 11.918 9.71416C11.918 10.0015 12.0321 10.277 12.2353 10.4802C12.4385 10.6834 12.714 10.7975 13.0013 10.7975C13.2887 10.7975 13.5642 10.6834 13.7674 10.4802C13.9705 10.277 14.0847 10.0015 14.0847 9.71416C14.0106 8.34344 14.4816 6.99903 15.3948 5.97417C16.3081 4.9493 17.5895 4.32712 18.9597 4.24333C20.3298 4.32712 21.6113 4.9493 22.5245 5.97417C23.4378 6.99903 23.9087 8.34344 23.8347 9.71416C23.8347 12.8591 20.6421 17.3397 15.0759 22.0057V22.01Z" fill="#1E3A2B"></path> </g> <defs> <clipPath id="clip0_261_5986"> <rect width="26" height="26" fill="white"></rect> </clipPath> </defs> </svg> 