<?xml version="1.0" encoding="UTF-8"?> <svg xmlns="http://www.w3.org/2000/svg" width="30" height="30" viewBox="0 0 30 30" fill="none"> <g clip-path="url(#clip0_261_5976)"> <path d="M30 11.25C30.0028 10.5619 29.8163 9.88619 29.4607 9.297C29.1052 8.70781 28.5944 8.22781 27.9842 7.90957C27.3741 7.59133 26.6882 7.44712 26.0015 7.49272C25.3149 7.53833 24.654 7.77199 24.0913 8.16813C23.5286 8.56427 23.0858 9.10761 22.8113 9.73864C22.5368 10.3697 22.4412 11.0641 22.5351 11.7458C22.6289 12.4275 22.9085 13.0703 23.3433 13.6037C23.778 14.1371 24.3512 14.5406 25 14.77V20C25 21.9891 24.2098 23.8968 22.8033 25.3033C21.3968 26.7098 19.4891 27.5 17.5 27.5C15.5109 27.5 13.6032 26.7098 12.1967 25.3033C10.7902 23.8968 10 21.9891 10 20V19.9C12.0801 19.5982 13.9823 18.5583 15.3592 16.9703C16.7361 15.3822 17.496 13.3519 17.5 11.25V6.25C17.498 4.59301 16.8389 3.00445 15.6672 1.83277C14.4956 0.661102 12.907 0.00198482 11.25 0C10.9185 0 10.6005 0.131696 10.3661 0.366117C10.1317 0.600537 10 0.918479 10 1.25C10 1.58152 10.1317 1.89946 10.3661 2.13388C10.6005 2.3683 10.9185 2.5 11.25 2.5C12.2446 2.5 13.1984 2.89509 13.9017 3.59835C14.6049 4.30161 15 5.25544 15 6.25V11.25C15 12.9076 14.3415 14.4973 13.1694 15.6694C11.9973 16.8415 10.4076 17.5 8.75 17.5C7.0924 17.5 5.50269 16.8415 4.33058 15.6694C3.15848 14.4973 2.5 12.9076 2.5 11.25V6.25C2.5 5.25544 2.89509 4.30161 3.59835 3.59835C4.30161 2.89509 5.25544 2.5 6.25 2.5C6.58152 2.5 6.89946 2.3683 7.13388 2.13388C7.3683 1.89946 7.5 1.58152 7.5 1.25C7.5 0.918479 7.3683 0.600537 7.13388 0.366117C6.89946 0.131696 6.58152 0 6.25 0C4.59301 0.00198482 3.00445 0.661102 1.83277 1.83277C0.661102 3.00445 0.00198482 4.59301 0 6.25L0 11.25C0.00401994 13.3519 0.763864 15.3822 2.1408 16.9703C3.51773 18.5583 5.4199 19.5982 7.5 19.9V20C7.5 22.6522 8.55357 25.1957 10.4289 27.0711C12.3043 28.9464 14.8478 30 17.5 30C20.1522 30 22.6957 28.9464 24.5711 27.0711C26.4464 25.1957 27.5 22.6522 27.5 20V14.77C28.2286 14.5124 28.8599 14.036 29.3074 13.4059C29.7549 12.7758 29.9968 12.0228 30 11.25ZM26.25 12.5C26.0028 12.5 25.7611 12.4267 25.5555 12.2893C25.35 12.152 25.1898 11.9568 25.0951 11.7284C25.0005 11.4999 24.9758 11.2486 25.024 11.0061C25.0723 10.7637 25.1913 10.5409 25.3661 10.3661C25.5409 10.1913 25.7637 10.0722 26.0061 10.024C26.2486 9.97579 26.4999 10.0005 26.7284 10.0951C26.9568 10.1898 27.152 10.35 27.2893 10.5555C27.4267 10.7611 27.5 11.0028 27.5 11.25C27.5 11.5815 27.3683 11.8995 27.1339 12.1339C26.8995 12.3683 26.5815 12.5 26.25 12.5Z" fill="#1E3A2B"></path> </g> <defs> <clipPath id="clip0_261_5976"> <rect width="30" height="30" fill="white"></rect> </clipPath> </defs> </svg> 