<svg width="198" height="106" viewBox="0 0 198 106" fill="none" xmlns="http://www.w3.org/2000/svg">
<path d="M146.958 30.6626H133.84C133.061 30.6626 132.411 31.3109 132.411 32.0888V44.0815H120.397C119.618 44.0815 118.969 44.7297 118.969 45.5076V58.6024C118.969 59.3803 119.618 60.0285 120.397 60.0285H132.411V72.0213C132.411 72.7992 133.061 73.4474 133.84 73.4474H146.958C147.737 73.4474 148.386 72.7992 148.386 72.0213V60.0285H160.4C161.179 60.0285 161.829 59.3803 161.829 58.6024V45.5076C161.829 44.7297 161.179 44.0815 160.4 44.0815H148.386V32.0888C148.386 31.3109 147.737 30.6626 146.958 30.6626Z" fill="#040404"/>
<path d="M76.6284 0C71.758 0 67.7967 3.95435 67.7967 8.81626V35.654C67.7967 40.5159 63.8354 44.4703 58.9649 44.4703H26.4952C21.6248 44.4703 17.6635 40.5159 17.6635 35.654V8.81626C17.7284 3.95435 13.7671 0 8.89669 0H8.83175C3.9613 0 0 3.95435 0 8.81626V96.7844C0 101.646 3.9613 105.601 8.83175 105.601H8.89669C13.7671 105.601 17.7284 101.646 17.7284 96.7844V69.817C17.7284 64.9551 21.6897 61.0008 26.5602 61.0008H59.0299C63.9003 61.0008 67.8616 64.9551 67.8616 69.817V96.7844C67.8616 101.646 71.8229 105.601 76.6933 105.601C81.5638 105.601 85.5251 101.646 85.5251 96.7844V8.81626C85.3952 3.95435 81.4989 0 76.6284 0Z" fill="#040404"/>
<path d="M194.168 34.2926C188.908 22.235 180.141 13.5484 168.387 7.90859C157.997 2.91703 147.022 1.36122 135.593 2.8522C127.345 3.95423 119.682 6.74173 112.669 11.2147C112.214 11.474 111.825 11.7981 111.37 12.0574C109.617 10.4368 107.928 8.81614 106.24 7.19551C104.681 5.70452 102.863 4.86179 100.72 4.73214C97.0835 4.47284 93.5768 6.54725 92.0832 9.85335C90.5896 13.1595 91.239 17.2435 93.9015 19.7068C97.668 23.2722 101.434 26.8376 105.201 30.403C107.409 32.4774 110.136 32.9312 112.864 31.5051C113.903 30.9865 114.942 30.2085 115.786 29.4306C117.994 27.4211 120.332 25.5411 122.929 24.115C132.021 18.9289 141.762 17.3731 152.022 19.4475C160.659 21.1978 168.062 25.2818 173.777 32.0885C180.79 40.451 183.193 49.9803 180.466 60.6117C178.128 69.5576 172.543 76.2346 164.685 80.9669C156.308 86.0233 147.152 87.7087 137.541 86.3474C129.618 85.2454 122.605 82.0689 116.695 76.6884C115.656 75.7809 114.552 75.0678 113.383 74.4843C110.201 72.9285 107.344 72.9934 104.617 75.6512C101.045 79.0869 97.4082 82.5227 93.9015 85.9585C90.9143 88.8756 90.4597 93.543 92.7975 96.9788C95.1354 100.544 99.5512 101.906 103.513 100.285C104.681 99.8311 105.656 99.118 106.565 98.2105C108.253 96.5898 109.877 95.034 111.565 93.4134C111.695 93.4782 111.76 93.543 111.825 93.6078C124.228 101.776 137.8 104.563 152.477 102.424C164.491 100.674 174.881 95.4878 183.518 86.866C191.765 78.5683 196.7 68.65 197.804 56.9815C198.519 49.2672 197.35 41.6178 194.168 34.2926ZM122.54 17.8917C121.306 17.8917 120.267 16.8545 120.267 15.6228C120.267 14.3911 121.371 13.4188 122.605 13.4188C123.839 13.4188 124.878 14.456 124.813 15.6876C124.878 16.8545 123.774 17.8917 122.54 17.8917ZM136.112 13.4188C134.878 13.4188 133.839 12.4464 133.839 11.2147C133.839 9.983 134.813 8.9458 136.112 8.9458C137.346 8.9458 138.385 9.91818 138.385 11.1499C138.32 12.4464 137.346 13.4188 136.112 13.4188ZM150.269 13.0298C149.035 13.0298 147.996 11.9926 147.996 10.7609C147.996 9.52922 148.97 8.55684 150.204 8.55684C151.503 8.55684 152.542 9.52922 152.542 10.7609C152.542 11.9926 151.503 13.0298 150.269 13.0298ZM163.971 16.5952C162.737 16.5952 161.698 15.558 161.698 14.3263C161.698 13.0946 162.672 12.1222 163.906 12.1222C165.14 12.1222 166.179 13.1595 166.244 14.3911C166.244 15.558 165.205 16.5952 163.971 16.5952ZM176.05 23.9853C174.816 23.9853 173.777 22.8833 173.842 21.5868C173.907 20.4199 174.881 19.4475 176.115 19.4475C177.349 19.4475 178.388 20.5496 178.323 21.7812C178.258 23.0129 177.219 23.9853 176.05 23.9853ZM122.67 92.2465C121.436 92.2465 120.397 91.2093 120.397 89.9776C120.397 88.7459 121.371 87.7736 122.67 87.7736C123.903 87.7736 124.943 88.8108 124.943 90.0424C124.878 91.2093 123.839 92.2465 122.67 92.2465ZM136.177 96.5898C134.878 96.5898 133.839 95.6174 133.839 94.3858C133.839 93.1541 134.813 92.1169 136.047 92.1169C137.346 92.1169 138.32 93.0893 138.32 94.3858C138.385 95.6174 137.346 96.5898 136.177 96.5898ZM150.269 97.0436C149.035 97.0436 147.996 96.0712 147.996 94.8395C147.996 93.6079 148.97 92.5706 150.204 92.5706C151.438 92.5706 152.542 93.543 152.542 94.8395C152.542 96.0712 151.568 96.9788 150.269 97.0436ZM163.971 93.4782C162.737 93.4782 161.763 92.5058 161.763 91.2741C161.763 89.9776 162.802 89.0052 164.101 89.0052C165.335 89.0052 166.309 89.9776 166.309 91.2093C166.309 92.441 165.27 93.4782 163.971 93.4782ZM176.05 86.0881C174.816 86.0881 173.842 85.1157 173.842 83.884C173.842 82.6523 174.816 81.68 176.115 81.6151C177.349 81.6151 178.388 82.5875 178.388 83.8192C178.323 85.0509 177.349 86.0881 176.05 86.0881ZM185.271 30.2734C186.505 30.2734 187.479 31.3106 187.479 32.5423C187.479 33.7739 186.505 34.8112 185.271 34.8112C184.037 34.8112 182.998 33.7739 182.998 32.5423C182.998 31.2458 183.972 30.2734 185.271 30.2734ZM185.206 75.2622C183.972 75.2622 182.998 74.225 182.998 72.9934C182.998 71.7617 184.102 70.7245 185.336 70.7245C186.57 70.7245 187.544 71.6968 187.544 72.9285C187.479 74.2899 186.505 75.3271 185.206 75.2622ZM190.271 43.4329C191.505 43.4329 192.479 44.4701 192.479 45.7667C192.479 46.9983 191.505 47.9707 190.271 47.9707C188.973 47.9707 187.999 46.9335 187.999 45.637C187.999 44.4053 189.038 43.4329 190.271 43.4329ZM190.207 62.1027C188.973 62.1027 187.999 61.0655 187.999 59.8338C187.999 58.6021 189.038 57.5649 190.271 57.5649C191.505 57.5649 192.544 58.5373 192.479 59.769C192.479 61.1303 191.44 62.1027 190.207 62.1027Z" fill="#040404"/>
</svg>
