<?xml version="1.0" encoding="UTF-8"?> <svg xmlns="http://www.w3.org/2000/svg" width="30" height="30" viewBox="0 0 30 30" fill="none"> <g clip-path="url(#clip0_261_5984)"> <path d="M28.75 15C28.75 15.3315 28.6183 15.6495 28.3839 15.8839C28.1495 16.1183 27.8315 16.25 27.5 16.25H23.9125C23.2666 16.2479 22.632 16.0799 22.0697 15.7621C21.5074 15.4442 21.0362 14.9873 20.7013 14.435L18.9912 11.5963L17.1325 16.125C17.0703 16.2769 16.9788 16.4151 16.8631 16.5317C16.7475 16.6482 16.6101 16.7408 16.4587 16.8043C16.3073 16.8677 16.1448 16.9007 15.9807 16.9014C15.8165 16.902 15.6538 16.8703 15.5019 16.8081C15.35 16.7459 15.2118 16.6544 15.0952 16.5388C14.9787 16.4232 14.886 16.2857 14.8226 16.1343C14.7592 15.9829 14.7262 15.8204 14.7255 15.6563C14.7249 15.4921 14.7565 15.3294 14.8187 15.1775L16.9438 10H14.52L11.94 16.29C11.8283 16.5618 11.8159 16.8643 11.9051 17.1443C11.9942 17.4244 12.1792 17.664 12.4275 17.8213L18.1675 21.4463C18.3455 21.5586 18.4922 21.7142 18.594 21.8984C18.6958 22.0826 18.7495 22.2895 18.75 22.5V28.75C18.75 29.0815 18.6183 29.3995 18.3839 29.6339C18.1495 29.8683 17.8315 30 17.5 30C17.1685 30 16.8505 29.8683 16.6161 29.6339C16.3817 29.3995 16.25 29.0815 16.25 28.75V23.1888L11.0925 19.9388C10.3459 19.4677 9.78935 18.7484 9.52091 17.9074C9.25247 17.0665 9.28933 16.1577 9.625 15.3413L11.8175 10H9.045C8.81287 9.99914 8.58514 10.0633 8.38763 10.1853C8.19012 10.3072 8.03072 10.4821 7.9275 10.69L6.11875 14.3088C6.04537 14.4557 5.94378 14.5867 5.81977 14.6943C5.69575 14.802 5.55175 14.8842 5.39598 14.9362C5.24021 14.9882 5.07572 15.009 4.91191 14.9974C4.7481 14.9858 4.58817 14.9421 4.44125 14.8688C4.29433 14.7954 4.16331 14.6938 4.05566 14.5698C3.948 14.4458 3.86583 14.3018 3.81383 14.146C3.76183 13.9902 3.74102 13.8257 3.75259 13.6619C3.76415 13.4981 3.80787 13.3382 3.88125 13.1913L5.69125 9.56625C6.00176 8.94319 6.48043 8.41946 7.07312 8.0543C7.66581 7.68914 8.34886 7.49714 9.045 7.5H17.3238C17.9702 7.50192 18.6053 7.66998 19.168 7.98803C19.7308 8.30608 20.2024 8.76346 20.5375 9.31625L22.8425 13.145C22.9542 13.329 23.1112 13.4812 23.2985 13.5871C23.4859 13.6931 23.6973 13.7492 23.9125 13.75H27.5C27.8315 13.75 28.1495 13.8817 28.3839 14.1161C28.6183 14.3505 28.75 14.6685 28.75 15ZM9.84375 21.0175C9.69134 20.9565 9.5284 20.9261 9.36425 20.9281C9.20009 20.9301 9.03794 20.9644 8.88704 21.0291C8.73614 21.0937 8.59946 21.1874 8.48479 21.3049C8.37013 21.4224 8.27972 21.5613 8.21875 21.7138C8.12687 21.9465 7.96685 22.1461 7.75965 22.2864C7.55245 22.4267 7.30772 22.5011 7.0575 22.5H3.75C3.41848 22.5 3.10054 22.6317 2.86612 22.8661C2.6317 23.1005 2.5 23.4185 2.5 23.75C2.5 24.0815 2.6317 24.3995 2.86612 24.6339C3.10054 24.8683 3.41848 25 3.75 25H7.0575C7.80762 25.0023 8.54105 24.7787 9.16222 24.3582C9.7834 23.9377 10.2635 23.3398 10.54 22.6425C10.601 22.4901 10.6314 22.3272 10.6294 22.163C10.6274 21.9988 10.5931 21.8367 10.5285 21.6858C10.4638 21.5349 10.3701 21.3982 10.2526 21.2835C10.1351 21.1689 9.99617 21.0785 9.84375 21.0175ZM18.75 6.25C19.3681 6.25 19.9723 6.06672 20.4862 5.72334C21.0001 5.37996 21.4006 4.89191 21.6371 4.32089C21.8736 3.74987 21.9355 3.12154 21.815 2.51534C21.6944 1.90915 21.3967 1.35233 20.9597 0.915293C20.5227 0.478254 19.9658 0.180626 19.3597 0.0600474C18.7535 -0.0605314 18.1251 0.00135401 17.5541 0.237878C16.9831 0.474402 16.495 0.874941 16.1517 1.38884C15.8083 1.90275 15.625 2.50693 15.625 3.125C15.625 3.9538 15.9542 4.74866 16.5403 5.33471C17.1263 5.92076 17.9212 6.25 18.75 6.25Z" fill="#1E3A2B"></path> </g> <defs> <clipPath id="clip0_261_5984"> <rect width="30" height="30" fill="white"></rect> </clipPath> </defs> </svg> 