<?xml version="1.0" encoding="utf-8"?>

<!DOCTYPE svg PUBLIC "-//W3C//DTD SVG 1.1//EN" "http://www.w3.org/Graphics/SVG/1.1/DTD/svg11.dtd">
<!-- Uploaded to: SVG Repo, www.svgrepo.com, Generator: SVG Repo Mixer Tools -->
<svg height="800px" width="800px" version="1.1" id="_x32_" xmlns="http://www.w3.org/2000/svg" xmlns:xlink="http://www.w3.org/1999/xlink" 
	 viewBox="0 0 512 512"  xml:space="preserve">
<style type="text/css">
	.st0{fill:#000000;}
</style>
<g>
	<path class="st0" d="M319.511,31.746c-0.787-15.108-13.251-27.133-28.552-27.133c-15.118,0-27.463,11.714-28.534,26.557
		C158.952,43.295,77.075,126.106,66.523,230.064c-0.768,7.504-37.804,29.943-38.976,30.594c-44.174,24.543-26.182,33.96-8.181,33.96
		h488.68c2.554-13.526,3.954-27.454,3.954-41.73C512,140.034,428.247,46.772,319.511,31.746z"/>
	<path class="st0" d="M292.075,438.403L219.158,314.33h-53.141l106.823,181.764c4.155,7.046,11.824,11.384,20.005,11.293
		c8.181-0.092,15.759-4.594,19.748-11.742L413.788,314.33h-52.456L292.075,438.403z"/>
</g>
</svg>