<svg width="438" height="98" viewBox="0 0 438 98" fill="none" xmlns="http://www.w3.org/2000/svg">
<path d="M206.486 22.6704H208.042V35.4113H224.371V22.6704H225.927V49.6476H224.371V36.9665H208.042V49.6476H206.486V22.6704Z" fill="black"/>
<path d="M245.606 50.2455C242.974 50.2455 240.761 49.6474 238.967 48.451C237.172 47.2547 235.796 45.6397 234.899 43.4863C234.002 41.3927 233.523 38.9402 233.523 36.1289C233.523 33.3175 234.002 30.865 234.899 28.7715C235.796 26.6779 237.172 25.003 238.967 23.8067C240.761 22.6104 242.974 22.0122 245.606 22.0122C248.238 22.0122 250.451 22.6104 252.246 23.8067C254.04 25.003 255.416 26.6181 256.313 28.7715C257.211 30.865 257.689 33.3175 257.689 36.1289C257.689 38.9402 257.211 41.3927 256.313 43.4863C255.416 45.5798 254.04 47.2547 252.246 48.451C250.451 49.6474 248.238 50.2455 245.606 50.2455ZM245.606 48.6305C247.879 48.6305 249.793 48.0921 251.349 47.0752C252.904 45.9986 254.1 44.563 254.878 42.7087C255.655 40.8544 256.074 38.6411 256.074 36.1887C256.074 33.7362 255.655 31.523 254.878 29.6687C254.1 27.8144 252.904 26.319 251.349 25.3021C249.793 24.2254 247.879 23.7469 245.606 23.7469C243.333 23.7469 241.479 24.2852 239.924 25.3021C238.369 26.3788 237.172 27.8144 236.395 29.6687C235.617 31.523 235.198 33.7362 235.198 36.1887C235.198 38.6411 235.557 40.7945 236.335 42.7087C237.112 44.563 238.309 46.0584 239.864 47.1351C241.419 48.1519 243.333 48.6305 245.606 48.6305Z" fill="black"/>
<path d="M265.227 22.6704H275.156C275.694 22.6704 276.293 22.7302 276.891 22.8499C278.147 23.0293 279.283 23.5078 280.24 24.2854C281.198 25.0032 281.975 25.9603 282.454 27.0968C282.992 28.2333 283.231 29.4895 283.231 30.8054C283.231 32.1214 282.992 33.2579 282.513 34.3944C282.035 35.4711 281.377 36.4282 280.48 37.146C279.582 37.8638 278.566 38.4021 277.369 38.6414L277.07 38.8806H266.782V49.6476H265.227V22.6704ZM275.156 37.2656C275.694 37.2656 276.293 37.2058 276.831 37.0861C277.848 36.9067 278.685 36.488 279.403 35.8898C280.121 35.2917 280.659 34.514 281.018 33.6168C281.377 32.7196 281.556 31.7625 281.556 30.7456C281.556 29.7287 281.377 28.7717 281.018 27.8744C280.659 26.9772 280.121 26.1996 279.403 25.6014C278.685 25.0032 277.848 24.5845 276.831 24.4051C276.293 24.2854 275.754 24.2256 275.156 24.2256H266.782V37.2656H275.156ZM276.771 38.7012L278.147 37.6843L284.009 49.7074H282.155L276.771 38.7012Z" fill="black"/>
<path d="M300.817 50.2455C299.023 50.2455 297.348 49.9464 295.913 49.3483C294.477 48.7501 293.221 47.9127 292.264 46.836C291.307 45.7593 290.649 44.4433 290.35 43.0077L291.905 42.7087C292.204 43.905 292.802 44.9817 293.64 45.8789C294.477 46.7762 295.494 47.494 296.69 47.9725C297.886 48.451 299.262 48.6903 300.758 48.6903C302.313 48.6903 303.689 48.451 304.885 47.9127C306.081 47.4341 306.979 46.7163 307.637 45.8191C308.295 44.9219 308.594 43.8452 308.594 42.6488C308.594 41.5123 308.354 40.6151 307.816 39.8973C307.278 39.1795 306.679 38.6411 306.021 38.3421C305.364 37.9832 304.586 37.6841 303.689 37.4448L296.929 35.4111C295.673 35.0522 294.597 34.5138 293.759 33.9157C292.922 33.3175 292.324 32.5997 291.905 31.8221C291.486 31.0445 291.307 30.1472 291.307 29.1902C291.307 27.8144 291.666 26.6181 292.443 25.5414C293.161 24.4647 294.238 23.6272 295.554 23.0291C296.87 22.4309 298.425 22.1318 300.1 22.1318C301.834 22.1318 303.449 22.4309 304.825 23.0889C306.261 23.7469 307.397 24.6441 308.295 25.8404C309.192 27.0368 309.73 28.4125 309.969 29.9678L308.414 30.2669C308.235 28.9509 307.756 27.8144 307.038 26.7975C306.261 25.7806 305.304 25.003 304.107 24.4647C302.911 23.9263 301.595 23.6272 300.1 23.6272C298.724 23.6272 297.468 23.8665 296.391 24.345C295.314 24.8236 294.477 25.4816 293.879 26.319C293.281 27.1564 292.982 28.0537 292.982 29.1303C292.982 30.1472 293.221 30.9847 293.759 31.5828C294.297 32.2408 294.955 32.7193 295.673 33.0782C296.451 33.4371 297.288 33.7362 298.365 34.0353L303.928 35.7101C304.945 36.0092 305.842 36.3681 306.679 36.7868C307.517 37.2056 308.294 37.9233 309.012 38.8804C309.67 39.8375 310.029 41.0338 310.029 42.5292C310.029 44.0844 309.67 45.4004 308.893 46.5369C308.115 47.6734 307.038 48.5707 305.603 49.1688C304.347 49.9464 302.732 50.2455 300.817 50.2455Z" fill="black"/>
<path d="M317.686 22.6704H334.195V24.2256H319.241V35.3515H331.982V36.9067H319.301V48.0325H334.255V49.6476H317.745V22.6704H317.686Z" fill="black"/>
<path d="M353.693 22.6704H361.589C363.085 22.6704 364.341 22.7302 365.178 22.8499C367.092 23.1489 368.707 23.8667 370.083 25.0631C371.399 26.2594 372.416 27.8146 373.074 29.7287C373.732 31.6429 374.031 33.7364 374.031 36.1291C374.031 38.4619 373.732 40.6153 373.074 42.5294C372.416 44.4436 371.459 45.9988 370.143 47.1951C368.827 48.3914 367.212 49.169 365.238 49.4083C364.4 49.5279 363.204 49.5878 361.649 49.5878H353.753V22.6704H353.693ZM361.589 48.0924C362.965 48.0924 364.101 48.0325 364.939 47.8531C366.673 47.554 368.049 46.896 369.186 45.8193C370.262 44.7426 371.1 43.4267 371.578 41.7518C372.057 40.1368 372.356 38.2227 372.356 36.1291C372.356 34.0355 372.117 32.1214 371.578 30.5063C371.1 28.8913 370.262 27.5155 369.186 26.4388C368.109 25.3621 366.673 24.7042 364.939 24.4051C364.52 24.3453 364.042 24.2855 363.443 24.2256C362.845 24.1658 362.247 24.1658 361.649 24.1658H355.428V48.0325H361.589V48.0924Z" fill="black"/>
<path d="M382.287 22.6704H383.842V49.6476H382.287V22.6704Z" fill="black"/>
<path d="M393.232 22.6704H409.742V24.2256H394.788V35.3515H407.469V36.9067H394.788V48.0325H409.742V49.6476H393.232V22.6704Z" fill="black"/>
<path d="M425.654 24.2256H415.725V22.6704H437.079V24.2256H427.209V49.6476H425.654V24.2256Z" fill="black"/>
<path d="M208.699 62.8667H213.185C213.425 62.8667 213.664 62.8667 213.963 62.9265C214.561 63.0461 215.04 63.2256 215.458 63.5845C215.877 63.9434 216.236 64.3621 216.475 64.8406C216.715 65.379 216.834 65.9173 216.834 66.5155C216.834 67.1137 216.715 67.7118 216.475 68.1904C216.236 68.7287 215.877 69.1474 215.458 69.4465C215.04 69.8054 214.501 69.9848 213.963 70.1045C213.664 70.1643 213.425 70.1643 213.185 70.1643H209.417V75.0094H208.699V62.8667ZM213.185 69.4465C213.425 69.4465 213.664 69.4465 213.903 69.3867C214.382 69.267 214.741 69.0876 215.1 68.8483C215.399 68.5493 215.638 68.2502 215.817 67.8315C215.997 67.4127 216.057 66.994 216.057 66.5155C216.057 66.037 215.997 65.6183 215.817 65.1995C215.638 64.7808 215.399 64.4817 215.1 64.1827C214.8 63.8836 214.382 63.7041 213.903 63.6443C213.664 63.5845 213.425 63.5845 213.185 63.5845H209.417V69.4465H213.185Z" fill="black"/>
<path d="M227.66 62.8667H232.146C232.386 62.8667 232.625 62.8667 232.924 62.9265C233.522 63.0461 234.001 63.2256 234.419 63.5845C234.838 63.9434 235.197 64.3621 235.436 64.8406C235.676 65.3192 235.795 65.9173 235.795 66.5155C235.795 67.1137 235.676 67.652 235.496 68.1305C235.317 68.6091 234.958 69.0278 234.599 69.3867C234.18 69.7456 233.761 69.925 233.223 70.0447L233.103 70.1643H228.438V75.0094H227.72V62.8667H227.66ZM232.146 69.4465C232.386 69.4465 232.625 69.4465 232.864 69.3867C233.343 69.267 233.702 69.0876 234.06 68.8483C234.36 68.5493 234.599 68.2502 234.778 67.8315C234.958 67.4127 235.018 66.994 235.018 66.5155C235.018 66.037 234.958 65.6183 234.778 65.1995C234.599 64.7808 234.36 64.4817 234.06 64.1827C233.761 63.8836 233.343 63.7041 232.864 63.6443C232.625 63.5845 232.386 63.5845 232.146 63.5845H228.378V69.4465H232.146ZM232.864 70.1045L233.462 69.6259L236.094 75.0692H235.257L232.864 70.1045Z" fill="black"/>
<path d="M251.947 75.3085C250.751 75.3085 249.734 75.0692 248.956 74.5309C248.119 73.9925 247.521 73.2747 247.102 72.3177C246.683 71.3606 246.504 70.2839 246.504 69.0278C246.504 67.7716 246.683 66.6351 247.102 65.7379C247.521 64.7808 248.119 64.063 248.956 63.5247C249.794 62.9863 250.751 62.7471 251.947 62.7471C253.144 62.7471 254.16 62.9863 254.938 63.5247C255.716 64.063 256.374 64.7808 256.792 65.7379C257.211 66.6949 257.39 67.7716 257.39 69.0278C257.39 70.2839 257.211 71.4204 256.792 72.3177C256.374 73.2747 255.775 73.9925 254.938 74.5309C254.101 75.0692 253.144 75.3085 251.947 75.3085ZM251.947 74.5907C252.964 74.5907 253.801 74.3514 254.519 73.8729C255.237 73.3944 255.775 72.7364 256.134 71.899C256.493 71.0615 256.673 70.0447 256.673 68.968C256.673 67.8913 256.493 66.8744 256.134 66.037C255.775 65.1995 255.237 64.5416 254.519 64.063C253.801 63.5845 252.964 63.3452 251.947 63.3452C250.93 63.3452 250.093 63.5845 249.375 64.063C248.657 64.5416 248.119 65.1995 247.82 66.037C247.461 66.8744 247.282 67.8913 247.282 68.968C247.282 70.1045 247.461 71.0615 247.82 71.899C248.179 72.7364 248.717 73.3944 249.435 73.8729C250.033 74.3514 250.93 74.5907 251.947 74.5907Z" fill="black"/>
<path d="M273.002 75.3085C271.806 75.3085 270.789 75.0692 270.011 74.5309C269.174 73.9925 268.575 73.2747 268.157 72.3177C267.738 71.3606 267.559 70.2839 267.559 69.0278C267.559 67.7716 267.738 66.6949 268.157 65.7379C268.575 64.7808 269.174 64.063 270.011 63.5247C270.848 62.9863 271.806 62.7471 273.002 62.7471C274.138 62.7471 275.095 62.9863 275.873 63.5247C276.651 64.063 277.249 64.7808 277.548 65.6781L276.83 65.9772C276.531 65.1995 276.053 64.6014 275.395 64.1228C274.737 63.7041 273.899 63.4649 273.002 63.4649C271.985 63.4649 271.148 63.7041 270.43 64.1827C269.712 64.6612 269.174 65.3192 268.875 66.1566C268.516 66.994 268.336 67.9511 268.336 69.0876C268.336 70.2241 268.516 71.1812 268.875 72.0186C269.233 72.856 269.772 73.514 270.49 73.9925C271.207 74.4711 272.045 74.7103 273.062 74.7103C274.557 74.7103 275.694 74.2916 276.352 73.3944C277.069 72.4971 277.428 71.3008 277.428 69.8054H274.198V69.0876H278.146C278.146 69.2072 278.146 69.3867 278.206 69.5063C278.206 69.6259 278.206 69.7456 278.206 69.8054C278.206 70.8821 278.026 71.899 277.668 72.7364C277.309 73.5738 276.71 74.2318 275.993 74.7103C275.155 75.0692 274.198 75.3085 273.002 75.3085Z" fill="black"/>
<path d="M288.973 62.8667H293.459C293.698 62.8667 293.937 62.8667 294.236 62.9265C294.835 63.0461 295.313 63.2256 295.732 63.5845C296.151 63.9434 296.51 64.3621 296.749 64.8406C296.988 65.379 297.108 65.9173 297.108 66.5155C297.108 67.1137 296.988 67.652 296.809 68.1305C296.629 68.6091 296.27 69.0278 295.911 69.3867C295.493 69.7456 295.074 69.925 294.536 70.0447L294.416 70.1643H289.75V75.0094H289.032V62.8667H288.973ZM293.459 69.4465C293.698 69.4465 293.937 69.4465 294.177 69.3867C294.655 69.267 295.014 69.0876 295.373 68.8483C295.672 68.5493 295.911 68.2502 296.091 67.8315C296.27 67.4127 296.33 66.994 296.33 66.5155C296.33 66.037 296.27 65.6183 296.091 65.1995C295.911 64.7808 295.672 64.4817 295.373 64.1827C295.074 63.8836 294.655 63.7041 294.177 63.6443C293.937 63.5845 293.698 63.5845 293.459 63.5845H289.69V69.4465H293.459ZM294.236 70.1045L294.835 69.6259L297.467 75.0692H296.629L294.236 70.1045Z" fill="black"/>
<path d="M312.062 62.8667H312.84L317.266 75.0692H316.489L312.182 63.2256H312.661L308.354 75.0692H307.576L312.062 62.8667ZM309.311 71.241H315.532V71.899H309.311V71.241Z" fill="black"/>
<path d="M327.912 62.8667H328.57L333.774 74.172L338.918 62.8667H339.636V75.0094H338.918V64.6014L334.193 75.0692H333.415L328.69 64.6014V75.0692H327.972V62.8667H327.912Z" fill="black"/>
<path d="M135.365 28.293H123.282C122.564 28.293 121.966 28.8911 121.966 29.6089V40.6749H110.9C110.182 40.6749 109.584 41.2731 109.584 41.9909V54.0738C109.584 54.7916 110.182 55.3898 110.9 55.3898H121.966V66.4558C121.966 67.1736 122.564 67.7717 123.282 67.7717H135.365C136.083 67.7717 136.681 67.1736 136.681 66.4558V55.3898H147.747C148.465 55.3898 149.063 54.7916 149.063 54.0738V41.9909C149.063 41.2731 148.465 40.6749 147.747 40.6749H136.681V29.6089C136.681 28.8911 136.083 28.293 135.365 28.293Z" fill="black"/>
<path d="M70.5833 0C66.097 0 62.4482 3.6488 62.4482 8.13502V32.899C62.4482 37.3852 58.7995 41.034 54.3132 41.034H24.4051C19.9188 41.034 16.27 37.3852 16.27 32.899V8.13502C16.3299 3.6488 12.6811 0 8.19484 0H8.13502C3.6488 0 0 3.6488 0 8.13502V89.3058C0 93.792 3.6488 97.4408 8.13502 97.4408H8.19484C12.6811 97.4408 16.3299 93.792 16.3299 89.3058V64.4222C16.3299 59.936 19.9787 56.2872 24.4649 56.2872H54.373C58.8593 56.2872 62.5081 59.936 62.5081 64.4222V89.3058C62.5081 93.792 66.1569 97.4408 70.6431 97.4408C75.1293 97.4408 78.7781 93.792 78.7781 89.3058V8.13502C78.6585 3.6488 75.0695 0 70.5833 0Z" fill="black"/>
<path d="M178.851 31.643C174.006 20.5172 165.931 12.5018 155.104 7.2978C145.534 2.69194 135.425 1.25635 124.897 2.63213C117.3 3.649 110.242 6.2211 103.782 10.3484C103.363 10.5877 103.004 10.8868 102.585 11.126C100.97 9.63064 99.4152 8.13523 97.86 6.63982C96.4244 5.26404 94.7495 4.48643 92.7756 4.3668C89.4259 4.12753 86.1958 6.04166 84.82 9.09229C83.4442 12.1429 84.0424 15.9114 86.4949 18.1844C89.9642 21.4743 93.4336 24.7642 96.9029 28.0541C98.9367 29.9682 101.449 30.3869 103.961 29.0709C104.918 28.5924 105.875 27.8746 106.653 27.1568C108.687 25.3025 110.84 23.5678 113.233 22.2519C121.607 17.4666 130.579 16.031 140.03 17.9451C147.986 19.5601 154.805 23.3286 160.069 29.6093C166.529 37.3256 168.742 46.1186 166.23 55.9285C164.077 64.1831 158.932 70.3442 151.695 74.7108C143.978 79.3765 135.544 80.9317 126.691 79.6756C119.394 78.6587 112.934 75.7277 107.49 70.7629C106.533 69.9255 105.516 69.2675 104.44 68.7292C101.509 67.2936 98.8768 67.3534 96.3646 69.8059C93.0747 72.9761 89.7249 76.1464 86.4949 79.3167C83.7433 82.0084 83.3246 86.3152 85.478 89.4854C87.6314 92.7753 91.6989 94.0315 95.3477 92.5361C96.4244 92.1174 97.3216 91.4594 98.159 90.6219C99.7143 89.1265 101.21 87.691 102.765 86.1955C102.885 86.2554 102.944 86.3152 103.004 86.375C114.429 93.9118 126.931 96.4839 140.449 94.51C151.515 92.895 161.086 88.1097 169.041 80.1541C176.638 72.4976 181.184 63.3457 182.201 52.5788C182.859 45.4606 181.782 38.4023 178.851 31.643ZM112.874 16.5095C111.737 16.5095 110.78 15.5525 110.78 14.4159C110.78 13.2794 111.797 12.3822 112.934 12.3822C114.07 12.3822 115.027 13.3392 114.967 14.4758C115.027 15.5525 114.01 16.5095 112.874 16.5095ZM125.375 12.3822C124.239 12.3822 123.282 11.4849 123.282 10.3484C123.282 9.21192 124.179 8.25486 125.375 8.25486C126.512 8.25486 127.469 9.15211 127.469 10.2886C127.409 11.4849 126.512 12.3822 125.375 12.3822ZM138.415 12.0233C137.279 12.0233 136.322 11.0662 136.322 9.92972C136.322 8.79321 137.219 7.89596 138.356 7.89596C139.552 7.89596 140.509 8.79321 140.509 9.92972C140.509 11.0662 139.552 12.0233 138.415 12.0233ZM151.037 15.3132C149.9 15.3132 148.943 14.3561 148.943 13.2196C148.943 12.0831 149.84 11.1859 150.977 11.1859C152.113 11.1859 153.07 12.1429 153.13 13.2794C153.13 14.3561 152.173 15.3132 151.037 15.3132ZM162.163 22.1322C161.026 22.1322 160.069 21.1154 160.129 19.919C160.189 18.8424 161.086 17.9451 162.222 17.9451C163.359 17.9451 164.316 18.962 164.256 20.0985C164.196 21.235 163.239 22.1322 162.163 22.1322ZM112.993 85.1189C111.857 85.1189 110.9 84.1618 110.9 83.0253C110.9 81.8888 111.797 80.9915 112.993 80.9915C114.13 80.9915 115.087 81.9486 115.087 83.0851C115.027 84.1618 114.07 85.1189 112.993 85.1189ZM125.435 89.1265C124.239 89.1265 123.282 88.2293 123.282 87.0928C123.282 85.9563 124.179 84.9992 125.316 84.9992C126.512 84.9992 127.409 85.8965 127.409 87.0928C127.469 88.2293 126.512 89.1265 125.435 89.1265ZM138.415 89.5452C137.279 89.5452 136.322 88.648 136.322 87.5115C136.322 86.375 137.219 85.4179 138.356 85.4179C139.492 85.4179 140.509 86.3152 140.509 87.5115C140.509 88.648 139.612 89.4854 138.415 89.5452ZM151.037 86.2554C149.9 86.2554 149.003 85.3581 149.003 84.2216C149.003 83.0253 149.96 82.128 151.156 82.128C152.293 82.128 153.19 83.0253 153.19 84.1618C153.19 85.2983 152.233 86.2554 151.037 86.2554ZM162.163 79.4363C161.026 79.4363 160.129 78.539 160.129 77.4025C160.129 76.266 161.026 75.3688 162.222 75.309C163.359 75.309 164.316 76.2062 164.316 77.3427C164.256 78.4792 163.359 79.4363 162.163 79.4363ZM170.656 27.9344C171.793 27.9344 172.69 28.8915 172.69 30.028C172.69 31.1645 171.793 32.1216 170.656 32.1216C169.52 32.1216 168.563 31.1645 168.563 30.028C168.563 28.8317 169.46 27.9344 170.656 27.9344ZM170.597 69.447C169.46 69.447 168.563 68.4899 168.563 67.3534C168.563 66.2169 169.58 65.2598 170.716 65.2598C171.853 65.2598 172.75 66.1571 172.75 67.2936C172.69 68.5497 171.793 69.5068 170.597 69.447ZM175.262 40.0771C176.399 40.0771 177.296 41.0342 177.296 42.2305C177.296 43.367 176.399 44.2643 175.262 44.2643C174.066 44.2643 173.169 43.3072 173.169 42.1109C173.169 40.9744 174.126 40.0771 175.262 40.0771ZM175.202 57.3043C174.066 57.3043 173.169 56.3472 173.169 55.2107C173.169 54.0742 174.126 53.1171 175.262 53.1171C176.399 53.1171 177.356 54.0144 177.296 55.1509C177.296 56.407 176.339 57.3043 175.202 57.3043Z" fill="black"/>
</svg>
