<?xml version="1.0" encoding="utf-8"?><svg viewBox="0 0 800 800" xmlns="http://www.w3.org/2000/svg" xmlns:xlink="http://www.w3.org/1999/xlink"><style>:root>svg{display:none}:root>svg:target{display:block}</style><svg viewBox="0 0 495 177" id="arrow" xmlns="http://www.w3.org/2000/svg"><path d="M492.196 28.403a2.183 2.183 0 0 1-1.574 1.572 495.97 495.97 0 0 1-36.848 7.957 2.187 2.187 0 0 1-2.536-1.78 2.184 2.184 0 0 1 1.78-2.537 491.924 491.924 0 0 0 36.512-7.886 2.204 2.204 0 0 1 2.669 1.577 2.19 2.19 0 0 1-.003 1.097Z"/><path d="M492.101 29.205a2.137 2.137 0 0 1-.333.717c-28.121 39.424-70.123 70.688-118.277 88.046-40.548 14.615-84.035 18.853-124.7 12.413-11.987 19.289-32.101 34.45-55.748 41.299-26.646 7.722-57.615 5.343-87.215-6.7C48.494 141.639 6.048 84.548.206 22.912a2.182 2.182 0 0 1 1.978-2.384 2.181 2.181 0 0 1 2.383 1.978c5.686 60.056 47.042 115.686 102.901 138.428 28.69 11.671 58.642 14.001 84.345 6.554 21.995-6.373 40.763-20.23 52.28-37.887a221.666 221.666 0 0 1-17.848-3.961c-24.381-6.474-42.729-15.739-56.067-28.343-16.929-15.984-25.349-38.189-21.984-57.965 3.823-22.498 24.675-40.32 45.507-38.911 9.611.642 19.69 5.017 29.955 12.984 30.671 23.813 44.609 65.884 33.143 100.061a78.567 78.567 0 0 1-5.64 12.855c39.456 5.956 81.532 1.702 120.843-12.464 47.317-17.055 88.589-47.773 116.203-86.469a2.18 2.18 0 0 1 3.052-.508 2.184 2.184 0 0 1 .852 2.338l-.008-.013Zm-245.547 96.372c2.472-4.328 4.518-8.845 6.082-13.511a72.09 72.09 0 0 0 1.383-4.667c8.202-31.549-5.207-68.909-33.061-90.54-9.558-7.421-18.834-11.486-27.556-12.067-18.687-1.258-37.405 14.888-40.895 35.277-3.128 18.342 4.798 39.05 20.674 54.035 12.806 12.081 30.527 21.013 54.191 27.289a221.937 221.937 0 0 0 19.182 4.184Z"/><path d="M493.939 63.013a2.196 2.196 0 0 1-1.684 1.6 2.206 2.206 0 0 1-2.587-1.714 91.672 91.672 0 0 1-.793-32.167c.116-.75.243-1.59.05-1.98a2.192 2.192 0 0 1 1.022-2.926 2.189 2.189 0 0 1 2.926 1.02c.782 1.608.521 3.306.334 4.548a87.271 87.271 0 0 0 .752 30.628c.071.336.052.67-.031.989l.011.002Z"/></svg><svg viewBox="0 0 20 20" id="check" xmlns="http://www.w3.org/2000/svg"><g clip-path="url(#ba)"><path d="M10 0C4.486 0 0 4.486 0 10s4.486 10 10 10 10-4.486 10-10S15.514 0 10 0Zm-.076 12.85a1.668 1.668 0 0 1-2.353-.004l-2.318-2.248 1.161-1.197 2.328 2.256 4.84-4.751 1.17 1.187-4.828 4.756Z"/></g><defs><clipPath id="ba"><path d="M0 0h20v20H0z"/></clipPath></defs></svg><svg viewBox="0 0 26 26" id="heart" xmlns="http://www.w3.org/2000/svg"><g clip-path="url(#ca)"><path d="M18.96 2.077A6.934 6.934 0 0 0 13 5.652a6.933 6.933 0 0 0-5.958-3.575A7.367 7.367 0 0 0 .001 9.714c0 4.926 5.185 10.306 9.534 13.954a5.388 5.388 0 0 0 6.933 0c4.349-3.648 9.533-9.028 9.533-13.954a7.367 7.367 0 0 0-7.041-7.637ZM15.076 22.01a3.22 3.22 0 0 1-4.15 0c-5.565-4.67-8.758-9.15-8.758-12.296a5.2 5.2 0 0 1 4.875-5.47 5.2 5.2 0 0 1 4.875 5.47 1.083 1.083 0 1 0 2.167 0 5.2 5.2 0 0 1 4.875-5.47 5.2 5.2 0 0 1 4.875 5.47c0 3.145-3.193 7.626-8.76 12.292v.004Z"/></g><defs><clipPath id="ca"><path d="M0 0h26v26H0z"/></clipPath></defs></svg><svg viewBox="0 0 502.664 502.664" xml:space="preserve" id="icon" xmlns="http://www.w3.org/2000/svg"><path d="M153.821 358.226 0 274.337v-46.463l153.821-83.414v54.574L46.636 250.523l107.185 53.431v54.272zm26.273 29.358L282.103 115.08h32.227L212.084 387.584h-31.99zm168.749-29.358v-54.272l107.164-52.999-107.164-52.59v-53.927l153.821 83.522v46.183l-153.821 84.083z"/></svg><svg viewBox="0 0 30 30" id="icon-doctor" xmlns="http://www.w3.org/2000/svg"><g clip-path="url(#da)"><path d="M30 11.25a3.75 3.75 0 1 0-5 3.52V20a7.5 7.5 0 0 1-15 0v-.1a8.758 8.758 0 0 0 7.5-8.65v-5A6.258 6.258 0 0 0 11.25 0a1.25 1.25 0 1 0 0 2.5A3.75 3.75 0 0 1 15 6.25v5a6.25 6.25 0 0 1-12.5 0v-5A3.75 3.75 0 0 1 6.25 2.5a1.25 1.25 0 0 0 0-2.5A6.258 6.258 0 0 0 0 6.25v5a8.758 8.758 0 0 0 7.5 8.65v.1a10 10 0 0 0 20 0v-5.23a3.75 3.75 0 0 0 2.5-3.52Zm-3.75 1.25a1.25 1.25 0 1 1 0-2.5 1.25 1.25 0 0 1 0 2.5Z"/></g><defs><clipPath id="da"><path d="M0 0h30v30H0z"/></clipPath></defs></svg><svg viewBox="0 0 198 106" id="logo-icon" xmlns="http://www.w3.org/2000/svg"><path d="M146.958 30.663H133.84a1.44 1.44 0 0 0-1.429 1.426V44.08h-12.014a1.44 1.44 0 0 0-1.428 1.427v13.094a1.44 1.44 0 0 0 1.428 1.427h12.014V72.02c0 .778.65 1.426 1.429 1.426h13.118a1.44 1.44 0 0 0 1.428-1.426V60.03H160.4a1.44 1.44 0 0 0 1.429-1.427V45.508a1.44 1.44 0 0 0-1.429-1.427h-12.014V32.09a1.44 1.44 0 0 0-1.428-1.426ZM76.628 0c-4.87 0-8.831 3.954-8.831 8.816v26.838c0 4.862-3.962 8.816-8.832 8.816h-32.47c-4.87 0-8.832-3.954-8.832-8.816V8.816C17.729 3.954 13.767 0 8.897 0h-.065C3.962 0 0 3.954 0 8.816v87.968c0 4.862 3.961 8.817 8.832 8.817h.065c4.87 0 8.831-3.955 8.831-8.817V69.817c0-4.862 3.962-8.816 8.832-8.816h32.47c4.87 0 8.832 3.954 8.832 8.816v26.967c0 4.862 3.96 8.817 8.831 8.817 4.87 0 8.832-3.955 8.832-8.817V8.816C85.395 3.954 81.5 0 76.628 0Z"/><path d="M194.168 34.293c-5.26-12.058-14.027-20.745-25.781-26.384-10.39-4.992-21.365-6.548-32.794-5.057-8.248 1.102-15.911 3.89-22.924 8.363-.455.259-.844.583-1.299.842a372.233 372.233 0 0 1-5.13-4.861c-1.559-1.491-3.377-2.334-5.52-2.464-3.636-.26-7.143 1.815-8.637 5.121-1.493 3.306-.844 7.39 1.819 9.854L105.2 30.403c2.208 2.074 4.935 2.528 7.663 1.102 1.039-.518 2.078-1.296 2.922-2.074 2.208-2.01 4.546-3.89 7.143-5.316 9.092-5.186 18.833-6.742 29.093-4.667 8.637 1.75 16.04 5.834 21.755 12.64 7.013 8.363 9.416 17.892 6.689 28.524-2.338 8.946-7.923 15.623-15.781 20.355-8.377 5.056-17.533 6.742-27.144 5.38-7.923-1.102-14.936-4.278-20.846-9.659a15.499 15.499 0 0 0-3.312-2.204c-3.182-1.555-6.039-1.49-8.766 1.167-3.572 3.436-7.209 6.872-10.716 10.308-2.987 2.917-3.441 7.584-1.103 11.02 2.337 3.565 6.753 4.927 10.715 3.306 1.168-.454 2.143-1.167 3.052-2.075 1.688-1.62 3.312-3.176 5-4.797.13.065.195.13.26.195 12.403 8.168 25.975 10.955 40.652 8.816 12.014-1.75 22.404-6.936 31.041-15.558 8.247-8.298 13.182-18.216 14.286-29.885.715-7.714-.454-15.363-3.636-22.688ZM122.54 17.892c-1.234 0-2.273-1.037-2.273-2.27 0-1.23 1.104-2.203 2.338-2.203s2.273 1.037 2.208 2.269c.065 1.167-1.039 2.204-2.273 2.204Zm13.572-4.473c-1.234 0-2.273-.973-2.273-2.204 0-1.232.974-2.27 2.273-2.27 1.234 0 2.273.973 2.273 2.205-.065 1.296-1.039 2.269-2.273 2.269Zm14.157-.39c-1.234 0-2.273-1.036-2.273-2.268 0-1.232.974-2.204 2.208-2.204 1.299 0 2.338.972 2.338 2.204 0 1.232-1.039 2.269-2.273 2.269Zm13.702 3.566c-1.234 0-2.273-1.037-2.273-2.269 0-1.231.974-2.204 2.208-2.204 1.234 0 2.273 1.037 2.338 2.27 0 1.166-1.039 2.203-2.273 2.203Zm12.079 7.39c-1.234 0-2.273-1.102-2.208-2.398a2.277 2.277 0 0 1 2.273-2.14c1.234 0 2.273 1.103 2.208 2.334-.065 1.232-1.104 2.204-2.273 2.204Zm-53.38 68.261c-1.234 0-2.273-1.037-2.273-2.268 0-1.232.974-2.204 2.273-2.204 1.233 0 2.273 1.037 2.273 2.268-.065 1.167-1.104 2.204-2.273 2.204Zm13.507 4.344c-1.299 0-2.338-.973-2.338-2.204 0-1.232.974-2.27 2.208-2.27 1.299 0 2.273.973 2.273 2.27.065 1.231-.974 2.204-2.143 2.204Zm14.092.454c-1.234 0-2.273-.973-2.273-2.204 0-1.232.974-2.27 2.208-2.27 1.234 0 2.338.973 2.338 2.27 0 1.231-.974 2.139-2.273 2.204Zm13.702-3.566a2.188 2.188 0 0 1-2.208-2.204c0-1.296 1.039-2.269 2.338-2.269 1.234 0 2.208.973 2.208 2.204 0 1.232-1.039 2.27-2.338 2.27Zm12.079-7.39a2.188 2.188 0 0 1-2.208-2.204c0-1.232.974-2.204 2.273-2.269 1.234 0 2.273.973 2.273 2.204-.065 1.232-1.039 2.27-2.338 2.27Zm9.221-55.815c1.234 0 2.208 1.038 2.208 2.27 0 1.23-.974 2.268-2.208 2.268-1.234 0-2.273-1.037-2.273-2.269 0-1.296.974-2.269 2.273-2.269Zm-.065 44.99c-1.234 0-2.208-1.038-2.208-2.27 0-1.231 1.104-2.268 2.338-2.268s2.208.972 2.208 2.204c-.065 1.36-1.039 2.398-2.338 2.333Zm5.065-31.83c1.234 0 2.208 1.037 2.208 2.334a2.188 2.188 0 0 1-2.208 2.204c-1.298 0-2.272-1.037-2.272-2.334 0-1.232 1.039-2.204 2.272-2.204Zm-.064 18.67c-1.234 0-2.208-1.038-2.208-2.27 0-1.23 1.039-2.268 2.272-2.268 1.234 0 2.273.972 2.208 2.204 0 1.361-1.039 2.334-2.272 2.334Z"/></svg><svg viewBox="0 0 30 30" id="spead" xmlns="http://www.w3.org/2000/svg"><g clip-path="url(#ga)"><path d="M28.75 15a1.25 1.25 0 0 1-1.25 1.25h-3.587a3.77 3.77 0 0 1-3.212-1.815l-1.71-2.839-1.858 4.529a1.25 1.25 0 1 1-2.314-.947L16.944 10H14.52l-2.58 6.29a1.25 1.25 0 0 0 .488 1.531l5.74 3.625a1.249 1.249 0 0 1 .582 1.054v6.25a1.25 1.25 0 0 1-2.5 0v-5.561l-5.158-3.25a3.75 3.75 0 0 1-1.467-4.598L11.818 10H9.045a1.242 1.242 0 0 0-1.117.69l-1.81 3.619a1.25 1.25 0 0 1-2.237-1.118l1.81-3.625A3.73 3.73 0 0 1 9.045 7.5h8.279a3.77 3.77 0 0 1 3.213 1.816l2.306 3.829a1.257 1.257 0 0 0 1.07.605H27.5A1.25 1.25 0 0 1 28.75 15ZM9.844 21.017a1.25 1.25 0 0 0-1.625.697 1.243 1.243 0 0 1-1.161.786H3.75a1.25 1.25 0 0 0 0 2.5h3.308a3.734 3.734 0 0 0 3.482-2.358 1.25 1.25 0 0 0-.696-1.625ZM18.75 6.25a3.125 3.125 0 1 0 0-6.25 3.125 3.125 0 0 0 0 6.25Z"/></g><defs><clipPath id="ga"><path d="M0 0h30v30H0z"/></clipPath></defs></svg><svg version="1.1" id="student" viewBox="0 0 512 512" xml:space="preserve" xmlns="http://www.w3.org/2000/svg"><style>.hst0{fill:#000}</style><path class="hst0" d="M505.837 180.418 279.265 76.124A55.219 55.219 0 0 0 256 71.031a55.225 55.225 0 0 0-23.265 5.093L6.163 180.418C2.418 182.149 0 185.922 0 190.045s2.418 7.896 6.163 9.627l226.572 104.294A55.226 55.226 0 0 0 256 309.067a55.242 55.242 0 0 0 23.267-5.101l178.812-82.306v82.881c-7.096.8-12.63 6.84-12.63 14.138a14.185 14.185 0 0 0 10.206 13.618l-12.092 79.791h55.676l-12.09-79.791a14.185 14.185 0 0 0 10.204-13.618c0-7.298-5.534-13.338-12.63-14.138v-95.148l21.116-9.721c3.744-1.731 6.163-5.504 6.163-9.627s-2.42-7.896-6.165-9.627z"/><path class="hst0" d="M256 346.831c-11.246 0-22.143-2.391-32.386-7.104L112.793 288.71v101.638c0 22.314 67.426 50.621 143.207 50.621 75.782 0 143.209-28.308 143.209-50.621V288.71l-110.827 51.017c-10.237 4.713-21.132 7.104-32.382 7.104z"/></svg><svg viewBox="0 0 512 512" xml:space="preserve" id="treiners-horse" xmlns="http://www.w3.org/2000/svg"><path d="M319.511 31.746c-.787-15.108-13.251-27.133-28.552-27.133-15.118 0-27.463 11.714-28.534 26.557-103.473 12.125-185.35 94.936-195.902 198.894-.768 7.504-37.804 29.943-38.976 30.594-44.174 24.543-26.182 33.96-8.181 33.96h488.68c2.554-13.526 3.954-27.454 3.954-41.73 0-112.854-83.753-206.116-192.489-221.142zm-27.436 406.657L219.158 314.33h-53.141L272.84 496.094c4.155 7.046 11.824 11.384 20.005 11.293 8.181-.092 15.759-4.594 19.748-11.742L413.788 314.33h-52.456l-69.257 124.073z" style="fill:#000"/></svg></svg>